<svg xmlns="http://www.w3.org/2000/svg" width="102.617" height="19.246" viewBox="0 0 102.617 19.246">
  <g id="Grupo_14" data-name="Grupo 14" transform="translate(-9.75 -17.377)">
    <path id="Trazado_3" data-name="Trazado 3" d="M9.75,17.694H15.5V31.723h8.976v4.583H9.75Z" fill="gray"/>
    <path id="Trazado_4" data-name="Trazado 4" d="M27.224,27.013a9.592,9.592,0,0,1,2.539-7.1,9.557,9.557,0,0,1,7.071-2.539q4.647,0,7.161,2.495a9.408,9.408,0,0,1,2.513,6.988,11.455,11.455,0,0,1-1.1,5.351,7.821,7.821,0,0,1-3.174,3.25,10.472,10.472,0,0,1-5.173,1.162,11.9,11.9,0,0,1-5.212-1,7.841,7.841,0,0,1-3.345-3.174A10.534,10.534,0,0,1,27.224,27.013Zm5.751.025a6.242,6.242,0,0,0,1.047,4.05,3.966,3.966,0,0,0,5.72.025q1.014-1.206,1.015-4.329a5.748,5.748,0,0,0-1.06-3.84,3.624,3.624,0,0,0-2.875-1.213,3.493,3.493,0,0,0-2.793,1.232A6.257,6.257,0,0,0,32.975,27.038Z" fill="gray"/>
    <path id="Trazado_5" data-name="Trazado 5" d="M60.262,29.564V25.692h8.887v7.935a18.184,18.184,0,0,1-4.513,2.368,15.312,15.312,0,0,1-4.653.628,11.294,11.294,0,0,1-5.4-1.13,7.726,7.726,0,0,1-3.238-3.364A11.059,11.059,0,0,1,50.195,27a10.706,10.706,0,0,1,1.257-5.3,8.141,8.141,0,0,1,3.681-3.422,11.982,11.982,0,0,1,5.091-.9,14.283,14.283,0,0,1,4.615.559,5.987,5.987,0,0,1,2.539,1.732,7.692,7.692,0,0,1,1.517,2.978l-5.548.99a3,3,0,0,0-1.161-1.613,3.632,3.632,0,0,0-2.089-.558,3.763,3.763,0,0,0-3.014,1.314,6.32,6.32,0,0,0-1.125,4.158q0,3.021,1.137,4.316a3.993,3.993,0,0,0,3.167,1.3,6.027,6.027,0,0,0,1.841-.279,9.914,9.914,0,0,0,2.006-.953V29.564Z" fill="gray"/>
    <path id="Trazado_6" data-name="Trazado 6" d="M93.083,27.013a9.588,9.588,0,0,1,2.539-7.1,9.554,9.554,0,0,1,7.071-2.539q4.647,0,7.16,2.495a9.4,9.4,0,0,1,2.514,6.988,11.455,11.455,0,0,1-1.1,5.351,7.815,7.815,0,0,1-3.174,3.25,10.47,10.47,0,0,1-5.173,1.162,11.9,11.9,0,0,1-5.212-1,7.833,7.833,0,0,1-3.344-3.174A10.524,10.524,0,0,1,93.083,27.013Zm5.75.025a6.242,6.242,0,0,0,1.047,4.05,3.966,3.966,0,0,0,5.72.025q1.016-1.206,1.016-4.329a5.748,5.748,0,0,0-1.061-3.84,3.624,3.624,0,0,0-2.875-1.213,3.493,3.493,0,0,0-2.793,1.232A6.257,6.257,0,0,0,98.833,27.038Z" fill="gray"/>
  </g>
</svg>
